<svg xmlns="http://www.w3.org/2000/svg" width="480" height="720" viewBox="0 0 480 720"><g transform="translate(0,0) scale(1.0)"><rect x="0" y="0" width="480" height="720" rx="42" fill="#FFFFFF" stroke="#1A1A1A" stroke-width="7"/><rect x="26" y="26" width="428" height="668" rx="34" fill="#E53935"/><ellipse cx="240" cy="360" rx="176" ry="116" fill="#FFFFFF" transform="rotate(-25 240 360)"/><rect x="50" y="56" width="68" height="88" rx="18" fill="#E53935"/><text x="84" y="114" fill="#FFFFFF" text-anchor="middle" font-family="'Trebuchet MS', 'Verdana', sans-serif" font-size="34" font-weight="900">6</text><rect x="362" y="568" width="68" height="88" rx="18" fill="#E53935" transform="rotate(180 396 616)"/><text x="396" y="626" fill="#FFFFFF" text-anchor="middle" font-family="'Trebuchet MS', 'Verdana', sans-serif" font-size="34" font-weight="900" transform="rotate(180 396 616)">6</text><rect x="334" y="86" width="96" height="32" rx="16" fill="#F2C94C"/><text x="382" y="109" fill="#1A1A1A" text-anchor="middle" font-family="'Trebuchet MS', 'Verdana', sans-serif" font-size="18" font-weight="900">HARRY</text><polygon points="372.0,130.0 388.8,130.0 377.6,156.6 393.0,156.6 370.6,194.39999999999998 377.6,166.4 360.8,166.4" fill="#F2C94C" stroke="#1A1A1A" stroke-width="1.4"/><text x="240" y="348" fill="#E53935" text-anchor="middle" font-family="'Trebuchet MS', 'Verdana', sans-serif" font-size="108" font-weight="900"><tspan x="240" y="348.0" letter-spacing="0.0px">6</tspan></text><text x="240" y="510" fill="#FFFFFF" text-anchor="middle" font-family="'Trebuchet MS', 'Verdana', sans-serif" font-size="32" font-weight="900">RED 6</text><text x="240" y="670" fill="#FFFFFF" text-anchor="middle" font-family="'Trebuchet MS', 'Verdana', sans-serif" font-size="16" font-weight="700" opacity="0.88">UNO HARRY POTTER (T8231)</text></g></svg>