<svg xmlns="http://www.w3.org/2000/svg" width="480" height="720" viewBox="0 0 480 720"><rect x="0" y="0" width="480" height="720" rx="42" fill="#FFFFFF" stroke="#1A1A1A" stroke-width="7"/><rect x="26" y="26" width="428" height="668" rx="34" fill="#101010"/><ellipse cx="240" cy="360" rx="188" ry="132" fill="#111111" opacity="0.94" transform="rotate(-25 240 360)"/><ellipse cx="240" cy="360" rx="154" ry="98" fill="none" stroke="#E5E5E5" stroke-width="12" transform="rotate(-25 240 360)"/><text x="240" y="345" fill="#E5E5E5" text-anchor="middle" font-family="'Trebuchet MS', 'Verdana', sans-serif" font-size="96" font-weight="900" letter-spacing="3">UNO</text><text x="240" y="438" fill="#E5E5E5" text-anchor="middle" font-family="'Trebuchet MS', 'Verdana', sans-serif" font-size="34" font-weight="900" letter-spacing="3">NO MERCY</text><path d="M40 86 L180 20 M20 220 L180 126 M10 420 L184 318 M30 610 L194 520" stroke="#FFFFFF" stroke-width="7" stroke-linecap="round" opacity="0.12"/><path d="M102 86 L222 20 M75 220 L242 126 M74 420 L236 318 M88 610 L248 520" stroke="#FFFFFF" stroke-width="7" stroke-linecap="round" opacity="0.12"/><path d="M164 86 L264 20 M130 220 L304 126 M138 420 L288 318 M146 610 L302 520" stroke="#FFFFFF" stroke-width="7" stroke-linecap="round" opacity="0.12"/><path d="M226 86 L306 20 M185 220 L366 126 M202 420 L340 318 M204 610 L356 520" stroke="#FFFFFF" stroke-width="7" stroke-linecap="round" opacity="0.12"/><path d="M288 86 L348 20 M240 220 L428 126 M266 420 L392 318 M262 610 L410 520" stroke="#FFFFFF" stroke-width="7" stroke-linecap="round" opacity="0.12"/><text x="240" y="668" fill="#E5E5E5" text-anchor="middle" font-family="'Trebuchet MS', 'Verdana', sans-serif" font-size="16" font-weight="700" opacity="0.92">UNO SHOW 'EM NO MERCY (HVW18)</text></svg>