<svg xmlns="http://www.w3.org/2000/svg" width="480" height="720" viewBox="0 0 480 720"><g transform="translate(0,0) scale(1.0)"><rect x="0" y="0" width="480" height="720" rx="42" fill="#0C0C0C" stroke="#1A1A1A" stroke-width="7"/><rect x="26" y="26" width="428" height="668" rx="34" fill="#2D8B57"/><path d="M40 70 L120 30 M12 180 L132 120 M-14 330 L118 258 M16 520 L122 460" stroke="#FFFFFF" stroke-width="8" stroke-linecap="round" opacity="0.18"/><path d="M92 70 L172 30 M64 180 L184 120 M38 330 L170 258 M68 520 L174 460" stroke="#FFFFFF" stroke-width="8" stroke-linecap="round" opacity="0.1"/><path d="M152 70 L232 30 M124 180 L244 120 M98 330 L230 258 M128 520 L234 460" stroke="#FFFFFF" stroke-width="8" stroke-linecap="round" opacity="0.18"/><path d="M228 70 L308 30 M200 180 L320 120 M174 330 L306 258 M204 520 L310 460" stroke="#FFFFFF" stroke-width="8" stroke-linecap="round" opacity="0.1"/><path d="M308 70 L388 30 M280 180 L400 120 M254 330 L386 258 M284 520 L390 460" stroke="#FFFFFF" stroke-width="8" stroke-linecap="round" opacity="0.18"/><path d="M388 70 L468 30 M360 180 L480 120 M334 330 L466 258 M364 520 L470 460" stroke="#FFFFFF" stroke-width="8" stroke-linecap="round" opacity="0.1"/><ellipse cx="240" cy="360" rx="176" ry="116" fill="#F3F3F3" transform="rotate(-25 240 360)"/><rect x="50" y="56" width="68" height="88" rx="18" fill="#2D8B57"/><text x="84" y="114" fill="#FFFFFF" text-anchor="middle" font-family="'Trebuchet MS', 'Verdana', sans-serif" font-size="34" font-weight="900">7</text><rect x="362" y="568" width="68" height="88" rx="18" fill="#2D8B57" transform="rotate(180 396 616)"/><text x="396" y="626" fill="#FFFFFF" text-anchor="middle" font-family="'Trebuchet MS', 'Verdana', sans-serif" font-size="34" font-weight="900" transform="rotate(180 396 616)">7</text><rect x="318" y="598" width="112" height="30" rx="15" fill="#111111" opacity="0.88"/><text x="374" y="620" fill="#F4F4F4" text-anchor="middle" font-family="'Trebuchet MS', 'Verdana', sans-serif" font-size="18" font-weight="900">NO MERCY</text><text x="240" y="348" fill="#2D8B57" text-anchor="middle" font-family="'Trebuchet MS', 'Verdana', sans-serif" font-size="108" font-weight="900"><tspan x="240" y="348.0" letter-spacing="0.0px">7</tspan></text><text x="240" y="510" fill="#FFFFFF" text-anchor="middle" font-family="'Trebuchet MS', 'Verdana', sans-serif" font-size="32" font-weight="900">GREEN 7</text><text x="240" y="670" fill="#FFFFFF" text-anchor="middle" font-family="'Trebuchet MS', 'Verdana', sans-serif" font-size="16" font-weight="700" opacity="0.88">UNO SHOW 'EM NO MERCY (HVW18)</text></g></svg>