<svg xmlns="http://www.w3.org/2000/svg" width="480" height="720" viewBox="0 0 480 720"><g transform="translate(0,0) scale(1.0)"><rect x="0" y="0" width="480" height="720" rx="42" fill="#121212" stroke="#F0F0F0" stroke-width="7"/><path d="M26 26 H454 L26 694 Z" fill="#FF4F9A" opacity="0.96"/><path d="M454 26 V694 L26 26 Z" fill="#FB8C00" opacity="0.94"/><path d="M26 694 H454 L454 26 Z" fill="#00B7C2" opacity="0.93"/><path d="M26 694 V26 L454 694 Z" fill="#7E57C2" opacity="0.92"/><ellipse cx="240" cy="360" rx="176" ry="116" fill="#FFFFFF" transform="rotate(-25 240 360)"/><rect x="50" y="56" width="68" height="88" rx="18" fill="#111111"/><text x="84" y="114" fill="#FFFFFF" text-anchor="middle" font-family="'Trebuchet MS', 'Verdana', sans-serif" font-size="34" font-weight="900">W</text><rect x="362" y="568" width="68" height="88" rx="18" fill="#111111" transform="rotate(180 396 616)"/><text x="396" y="626" fill="#FFFFFF" text-anchor="middle" font-family="'Trebuchet MS', 'Verdana', sans-serif" font-size="34" font-weight="900" transform="rotate(180 396 616)">W</text><rect x="48" y="600" width="92" height="28" rx="14" fill="#121212" opacity="0.92"/><text x="94" y="620" fill="#F0F0F0" text-anchor="middle" font-family="'Trebuchet MS', 'Verdana', sans-serif" font-size="18" font-weight="900">DARK</text><text x="240" y="348" fill="#111111" text-anchor="middle" font-family="'Trebuchet MS', 'Verdana', sans-serif" font-size="62" font-weight="900"><tspan x="240" y="311.0" letter-spacing="1.2px">DRAW</tspan><tspan x="240" y="385.0" letter-spacing="1.2px">COLOR</tspan></text><text x="240" y="510" fill="#FFFFFF" text-anchor="middle" font-family="'Trebuchet MS', 'Verdana', sans-serif" font-size="32" font-weight="900">WILD</text><text x="240" y="670" fill="#FFFFFF" text-anchor="middle" font-family="'Trebuchet MS', 'Verdana', sans-serif" font-size="16" font-weight="700" opacity="0.88">UNO FLIP (GDR44)</text></g></svg>