<svg xmlns="http://www.w3.org/2000/svg" width="480" height="720" viewBox="0 0 480 720"><g transform="translate(0,0) scale(1.0)"><rect x="0" y="0" width="480" height="720" rx="42" fill="#FFFFFF" stroke="#1A1A1A" stroke-width="7"/><path d="M26 26 H454 L26 694 Z" fill="#E53935" opacity="0.96"/><path d="M454 26 V694 L26 26 Z" fill="#FDD835" opacity="0.94"/><path d="M26 694 H454 L454 26 Z" fill="#43A047" opacity="0.93"/><path d="M26 694 V26 L454 694 Z" fill="#1E88E5" opacity="0.92"/><ellipse cx="240" cy="360" rx="176" ry="116" fill="#FFFFFF" transform="rotate(-25 240 360)"/><rect x="50" y="56" width="68" height="88" rx="18" fill="#111111"/><text x="84" y="114" fill="#FFFFFF" text-anchor="middle" font-family="'Trebuchet MS', 'Verdana', sans-serif" font-size="34" font-weight="900">W</text><rect x="362" y="568" width="68" height="88" rx="18" fill="#111111" transform="rotate(180 396 616)"/><text x="396" y="626" fill="#FFFFFF" text-anchor="middle" font-family="'Trebuchet MS', 'Verdana', sans-serif" font-size="34" font-weight="900" transform="rotate(180 396 616)">W</text><text x="240" y="348" fill="#111111" text-anchor="middle" font-family="'Trebuchet MS', 'Verdana', sans-serif" font-size="108" font-weight="900"><tspan x="240" y="348.0" letter-spacing="1.2px">SWAP</tspan></text><text x="240" y="510" fill="#FFFFFF" text-anchor="middle" font-family="'Trebuchet MS', 'Verdana', sans-serif" font-size="32" font-weight="900">HANDS</text><text x="240" y="670" fill="#FFFFFF" text-anchor="middle" font-family="'Trebuchet MS', 'Verdana', sans-serif" font-size="16" font-weight="700" opacity="0.88">CLASSIC UNO (MODERN 112 - SWAP HANDS)</text></g></svg>